<svg aria-roledescription="er" role="graphics-document document" viewBox="0 -61 569.6007080078125 919" style="max-width: 569.601px; background-color: white;" xmlns:xlink="http://www.w3.org/1999/xlink" xmlns="http://www.w3.org/2000/svg" width="100%" id="my-svg"><style>#my-svg{font-family:"trebuchet ms",verdana,arial,sans-serif;font-size:16px;fill:#333;}#my-svg .error-icon{fill:#552222;}#my-svg .error-text{fill:#552222;stroke:#552222;}#my-svg .edge-thickness-normal{stroke-width:1px;}#my-svg .edge-thickness-thick{stroke-width:3.5px;}#my-svg .edge-pattern-solid{stroke-dasharray:0;}#my-svg .edge-thickness-invisible{stroke-width:0;fill:none;}#my-svg .edge-pattern-dashed{stroke-dasharray:3;}#my-svg .edge-pattern-dotted{stroke-dasharray:2;}#my-svg .marker{fill:#333333;stroke:#333333;}#my-svg .marker.cross{stroke:#333333;}#my-svg svg{font-family:"trebuchet ms",verdana,arial,sans-serif;font-size:16px;}#my-svg p{margin:0;}#my-svg .entityBox{fill:#ECECFF;stroke:#9370DB;}#my-svg .attributeBoxOdd{fill:#ffffff;stroke:#9370DB;}#my-svg .attributeBoxEven{fill:#f2f2f2;stroke:#9370DB;}#my-svg .relationshipLabelBox{fill:hsl(80, 100%, 96.2745098039%);opacity:0.7;background-color:hsl(80, 100%, 96.2745098039%);}#my-svg .relationshipLabelBox rect{opacity:0.5;}#my-svg .relationshipLine{stroke:#333333;}#my-svg .entityTitleText{text-anchor:middle;font-size:18px;fill:#333;}#my-svg #MD_PARENT_START{fill:#f5f5f5!important;stroke:#333333!important;stroke-width:1;}#my-svg #MD_PARENT_END{fill:#f5f5f5!important;stroke:#333333!important;stroke-width:1;}#my-svg :root{--mermaid-font-family:"trebuchet ms",verdana,arial,sans-serif;}</style><g/><defs><marker orient="auto" markerHeight="240" markerWidth="190" refY="7" refX="0" id="MD_PARENT_START"><path d="M 18,7 L9,13 L1,7 L9,1 Z"/></marker></defs><defs><marker orient="auto" markerHeight="28" markerWidth="20" refY="7" refX="19" id="MD_PARENT_END"><path d="M 18,7 L9,13 L1,7 L9,1 Z"/></marker></defs><defs><marker orient="auto" markerHeight="18" markerWidth="18" refY="9" refX="0" id="ONLY_ONE_START"><path d="M9,0 L9,18 M15,0 L15,18" fill="none" stroke="gray"/></marker></defs><defs><marker orient="auto" markerHeight="18" markerWidth="18" refY="9" refX="18" id="ONLY_ONE_END"><path d="M3,0 L3,18 M9,0 L9,18" fill="none" stroke="gray"/></marker></defs><defs><marker orient="auto" markerHeight="18" markerWidth="30" refY="9" refX="0" id="ZERO_OR_ONE_START"><circle r="6" cy="9" cx="21" fill="white" stroke="gray"/><path d="M9,0 L9,18" fill="none" stroke="gray"/></marker></defs><defs><marker orient="auto" markerHeight="18" markerWidth="30" refY="9" refX="30" id="ZERO_OR_ONE_END"><circle r="6" cy="9" cx="9" fill="white" stroke="gray"/><path d="M21,0 L21,18" fill="none" stroke="gray"/></marker></defs><defs><marker orient="auto" markerHeight="36" markerWidth="45" refY="18" refX="18" id="ONE_OR_MORE_START"><path d="M0,18 Q 18,0 36,18 Q 18,36 0,18 M42,9 L42,27" fill="none" stroke="gray"/></marker></defs><defs><marker orient="auto" markerHeight="36" markerWidth="45" refY="18" refX="27" id="ONE_OR_MORE_END"><path d="M3,9 L3,27 M9,18 Q27,0 45,18 Q27,36 9,18" fill="none" stroke="gray"/></marker></defs><defs><marker orient="auto" markerHeight="36" markerWidth="57" refY="18" refX="18" id="ZERO_OR_MORE_START"><circle r="6" cy="18" cx="48" fill="white" stroke="gray"/><path d="M0,18 Q18,0 36,18 Q18,36 0,18" fill="none" stroke="gray"/></marker></defs><defs><marker orient="auto" markerHeight="36" markerWidth="57" refY="18" refX="39" id="ZERO_OR_MORE_END"><circle r="6" cy="18" cx="9" fill="white" stroke="gray"/><path d="M21,18 Q39,0 57,18 Q39,36 21,18" fill="none" stroke="gray"/></marker></defs><path style="stroke: gray; fill: none;" marker-start="url(#ZERO_OR_MORE_START)" marker-end="url(#ZERO_OR_MORE_END)" d="M247.401,233L244.739,241.333C242.076,249.667,236.751,266.333,236.188,283C235.625,299.667,239.823,316.333,241.922,324.667L244.021,333" class="er relationshipLine"/><path style="stroke: gray; fill: none;" marker-start="url(#ONLY_ONE_START)" marker-end="url(#ZERO_OR_MORE_END)" d="M315.452,233L318.115,241.333C320.777,249.667,326.102,266.333,326.665,283C327.228,299.667,323.03,316.333,320.931,324.667L318.832,333" class="er relationshipLine"/><path style="stroke: gray; fill: none;" marker-start="url(#ZERO_OR_MORE_START)" marker-end="url(#ONLY_ONE_END)" d="M203.41,554.747L181.175,575.622C158.94,596.498,114.47,638.249,92.235,670.958C70,703.667,70,727.333,70,739.167L70,751" class="er relationshipLine"/><path style="stroke: gray; fill: none;" marker-start="url(#ZERO_OR_MORE_START)" marker-end="url(#ONLY_ONE_END)" d="M281.427,630L281.427,638.333C281.427,646.667,281.427,663.333,281.427,680C281.427,696.667,281.427,713.333,281.427,721.667L281.427,730" class="er relationshipLine"/><path style="stroke: gray; fill: none;" marker-start="url(#ONLY_ONE_START)" marker-end="url(#ZERO_OR_MORE_END)" d="M359.443,553.596L382.241,574.664C405.038,595.731,450.632,637.865,473.43,670.766C496.227,703.667,496.227,727.333,496.227,739.167L496.227,751" class="er relationshipLine"/><g transform="translate(186.99205017089844,20 )" id="entity-users-33ae1e26-be31-5c1d-bf65-e859e9d0308e"><rect height="213" width="188.86920166015625" y="0" x="0" class="er entityBox"/><text style="dominant-baseline: middle; text-anchor: middle; font-size: 12px;" transform="translate(94.43460083007812,12)" y="0" x="0" id="text-entity-users-33ae1e26-be31-5c1d-bf65-e859e9d0308e" class="er entityLabel">users</text><rect height="21" width="49.4078369140625" y="24" x="0" class="er attributeBoxOdd"/><text style="dominant-baseline: middle; font-size: 10.2px;" transform="translate(5,34.5)" y="0" x="0" id="text-entity-users-33ae1e26-be31-5c1d-bf65-e859e9d0308e-attr-1-type" class="er entityLabel">int</text><rect height="21" width="115.6663818359375" y="24" x="49.4078369140625" class="er attributeBoxOdd"/><text style="dominant-baseline: middle; font-size: 10.2px;" transform="translate(54.4078369140625,34.5)" y="0" x="0" id="text-entity-users-33ae1e26-be31-5c1d-bf65-e859e9d0308e-attr-1-name" class="er entityLabel">id</text><rect height="21" width="23.79498291015625" y="24" x="165.07421875" class="er attributeBoxOdd"/><text style="dominant-baseline: middle; font-size: 10.2px;" transform="translate(170.07421875,34.5)" y="0" x="0" id="text-entity-users-33ae1e26-be31-5c1d-bf65-e859e9d0308e-attr-1-key" class="er entityLabel">PK</text><rect height="21" width="49.4078369140625" y="45" x="0" class="er attributeBoxEven"/><text style="dominant-baseline: middle; font-size: 10.2px;" transform="translate(5,55.5)" y="0" x="0" id="text-entity-users-33ae1e26-be31-5c1d-bf65-e859e9d0308e-attr-2-type" class="er entityLabel">string</text><rect height="21" width="115.6663818359375" y="45" x="49.4078369140625" class="er attributeBoxEven"/><text style="dominant-baseline: middle; font-size: 10.2px;" transform="translate(54.4078369140625,55.5)" y="0" x="0" id="text-entity-users-33ae1e26-be31-5c1d-bf65-e859e9d0308e-attr-2-name" class="er entityLabel">display_name</text><rect height="21" width="23.79498291015625" y="45" x="165.07421875" class="er attributeBoxEven"/><text style="dominant-baseline: middle; font-size: 10.2px;" transform="translate(170.07421875,55.5)" y="0" x="0" id="text-entity-users-33ae1e26-be31-5c1d-bf65-e859e9d0308e-attr-2-key" class="er entityLabel"/><rect height="21" width="49.4078369140625" y="66" x="0" class="er attributeBoxOdd"/><text style="dominant-baseline: middle; font-size: 10.2px;" transform="translate(5,76.5)" y="0" x="0" id="text-entity-users-33ae1e26-be31-5c1d-bf65-e859e9d0308e-attr-3-type" class="er entityLabel">string</text><rect height="21" width="115.6663818359375" y="66" x="49.4078369140625" class="er attributeBoxOdd"/><text style="dominant-baseline: middle; font-size: 10.2px;" transform="translate(54.4078369140625,76.5)" y="0" x="0" id="text-entity-users-33ae1e26-be31-5c1d-bf65-e859e9d0308e-attr-3-name" class="er entityLabel">username</text><rect height="21" width="23.79498291015625" y="66" x="165.07421875" class="er attributeBoxOdd"/><text style="dominant-baseline: middle; font-size: 10.2px;" transform="translate(170.07421875,76.5)" y="0" x="0" id="text-entity-users-33ae1e26-be31-5c1d-bf65-e859e9d0308e-attr-3-key" class="er entityLabel"/><rect height="21" width="49.4078369140625" y="87" x="0" class="er attributeBoxEven"/><text style="dominant-baseline: middle; font-size: 10.2px;" transform="translate(5,97.5)" y="0" x="0" id="text-entity-users-33ae1e26-be31-5c1d-bf65-e859e9d0308e-attr-4-type" class="er entityLabel">string</text><rect height="21" width="115.6663818359375" y="87" x="49.4078369140625" class="er attributeBoxEven"/><text style="dominant-baseline: middle; font-size: 10.2px;" transform="translate(54.4078369140625,97.5)" y="0" x="0" id="text-entity-users-33ae1e26-be31-5c1d-bf65-e859e9d0308e-attr-4-name" class="er entityLabel">email</text><rect height="21" width="23.79498291015625" y="87" x="165.07421875" class="er attributeBoxEven"/><text style="dominant-baseline: middle; font-size: 10.2px;" transform="translate(170.07421875,97.5)" y="0" x="0" id="text-entity-users-33ae1e26-be31-5c1d-bf65-e859e9d0308e-attr-4-key" class="er entityLabel"/><rect height="21" width="49.4078369140625" y="108" x="0" class="er attributeBoxOdd"/><text style="dominant-baseline: middle; font-size: 10.2px;" transform="translate(5,118.5)" y="0" x="0" id="text-entity-users-33ae1e26-be31-5c1d-bf65-e859e9d0308e-attr-5-type" class="er entityLabel">string</text><rect height="21" width="115.6663818359375" y="108" x="49.4078369140625" class="er attributeBoxOdd"/><text style="dominant-baseline: middle; font-size: 10.2px;" transform="translate(54.4078369140625,118.5)" y="0" x="0" id="text-entity-users-33ae1e26-be31-5c1d-bf65-e859e9d0308e-attr-5-name" class="er entityLabel">password</text><rect height="21" width="23.79498291015625" y="108" x="165.07421875" class="er attributeBoxOdd"/><text style="dominant-baseline: middle; font-size: 10.2px;" transform="translate(170.07421875,118.5)" y="0" x="0" id="text-entity-users-33ae1e26-be31-5c1d-bf65-e859e9d0308e-attr-5-key" class="er entityLabel"/><rect height="21" width="49.4078369140625" y="129" x="0" class="er attributeBoxEven"/><text style="dominant-baseline: middle; font-size: 10.2px;" transform="translate(5,139.5)" y="0" x="0" id="text-entity-users-33ae1e26-be31-5c1d-bf65-e859e9d0308e-attr-6-type" class="er entityLabel">string</text><rect height="21" width="115.6663818359375" y="129" x="49.4078369140625" class="er attributeBoxEven"/><text style="dominant-baseline: middle; font-size: 10.2px;" transform="translate(54.4078369140625,139.5)" y="0" x="0" id="text-entity-users-33ae1e26-be31-5c1d-bf65-e859e9d0308e-attr-6-name" class="er entityLabel">profile_picture_id</text><rect height="21" width="23.79498291015625" y="129" x="165.07421875" class="er attributeBoxEven"/><text style="dominant-baseline: middle; font-size: 10.2px;" transform="translate(170.07421875,139.5)" y="0" x="0" id="text-entity-users-33ae1e26-be31-5c1d-bf65-e859e9d0308e-attr-6-key" class="er entityLabel"/><rect height="21" width="49.4078369140625" y="150" x="0" class="er attributeBoxOdd"/><text style="dominant-baseline: middle; font-size: 10.2px;" transform="translate(5,160.5)" y="0" x="0" id="text-entity-users-33ae1e26-be31-5c1d-bf65-e859e9d0308e-attr-7-type" class="er entityLabel">string</text><rect height="21" width="115.6663818359375" y="150" x="49.4078369140625" class="er attributeBoxOdd"/><text style="dominant-baseline: middle; font-size: 10.2px;" transform="translate(54.4078369140625,160.5)" y="0" x="0" id="text-entity-users-33ae1e26-be31-5c1d-bf65-e859e9d0308e-attr-7-name" class="er entityLabel">terms_agreement_date</text><rect height="21" width="23.79498291015625" y="150" x="165.07421875" class="er attributeBoxOdd"/><text style="dominant-baseline: middle; font-size: 10.2px;" transform="translate(170.07421875,160.5)" y="0" x="0" id="text-entity-users-33ae1e26-be31-5c1d-bf65-e859e9d0308e-attr-7-key" class="er entityLabel"/><rect height="21" width="49.4078369140625" y="171" x="0" class="er attributeBoxEven"/><text style="dominant-baseline: middle; font-size: 10.2px;" transform="translate(5,181.5)" y="0" x="0" id="text-entity-users-33ae1e26-be31-5c1d-bf65-e859e9d0308e-attr-8-type" class="er entityLabel">string</text><rect height="21" width="115.6663818359375" y="171" x="49.4078369140625" class="er attributeBoxEven"/><text style="dominant-baseline: middle; font-size: 10.2px;" transform="translate(54.4078369140625,181.5)" y="0" x="0" id="text-entity-users-33ae1e26-be31-5c1d-bf65-e859e9d0308e-attr-8-name" class="er entityLabel">role</text><rect height="21" width="23.79498291015625" y="171" x="165.07421875" class="er attributeBoxEven"/><text style="dominant-baseline: middle; font-size: 10.2px;" transform="translate(170.07421875,181.5)" y="0" x="0" id="text-entity-users-33ae1e26-be31-5c1d-bf65-e859e9d0308e-attr-8-key" class="er entityLabel"/><rect height="21" width="49.4078369140625" y="192" x="0" class="er attributeBoxOdd"/><text style="dominant-baseline: middle; font-size: 10.2px;" transform="translate(5,202.5)" y="0" x="0" id="text-entity-users-33ae1e26-be31-5c1d-bf65-e859e9d0308e-attr-9-type" class="er entityLabel">datetime</text><rect height="21" width="115.6663818359375" y="192" x="49.4078369140625" class="er attributeBoxOdd"/><text style="dominant-baseline: middle; font-size: 10.2px;" transform="translate(54.4078369140625,202.5)" y="0" x="0" id="text-entity-users-33ae1e26-be31-5c1d-bf65-e859e9d0308e-attr-9-name" class="er entityLabel">created_at</text><rect height="21" width="23.79498291015625" y="192" x="165.07421875" class="er attributeBoxOdd"/><text style="dominant-baseline: middle; font-size: 10.2px;" transform="translate(170.07421875,202.5)" y="0" x="0" id="text-entity-users-33ae1e26-be31-5c1d-bf65-e859e9d0308e-attr-9-key" class="er entityLabel"/></g><g transform="translate(20,751 )" id="entity-brands-643bd60d-8f2d-5b25-b505-fe833ec39ed2"><rect height="66" width="100" y="0" x="0" class="er entityBox"/><text style="dominant-baseline: middle; text-anchor: middle; font-size: 12px;" transform="translate(50,12)" y="0" x="0" id="text-entity-brands-643bd60d-8f2d-5b25-b505-fe833ec39ed2" class="er entityLabel">brands</text><rect height="21" width="36.9595947265625" y="24" x="0" class="er attributeBoxOdd"/><text style="dominant-baseline: middle; font-size: 10.2px;" transform="translate(5,34.5)" y="0" x="0" id="text-entity-brands-643bd60d-8f2d-5b25-b505-fe833ec39ed2-attr-1-type" class="er entityLabel">int</text><rect height="21" width="37.531646728515625" y="24" x="36.9595947265625" class="er attributeBoxOdd"/><text style="dominant-baseline: middle; font-size: 10.2px;" transform="translate(41.9595947265625,34.5)" y="0" x="0" id="text-entity-brands-643bd60d-8f2d-5b25-b505-fe833ec39ed2-attr-1-name" class="er entityLabel">id</text><rect height="21" width="25.508758544921875" y="24" x="74.49124145507812" class="er attributeBoxOdd"/><text style="dominant-baseline: middle; font-size: 10.2px;" transform="translate(79.49124145507812,34.5)" y="0" x="0" id="text-entity-brands-643bd60d-8f2d-5b25-b505-fe833ec39ed2-attr-1-key" class="er entityLabel">PK</text><rect height="21" width="36.9595947265625" y="45" x="0" class="er attributeBoxEven"/><text style="dominant-baseline: middle; font-size: 10.2px;" transform="translate(5,55.5)" y="0" x="0" id="text-entity-brands-643bd60d-8f2d-5b25-b505-fe833ec39ed2-attr-2-type" class="er entityLabel">string</text><rect height="21" width="37.531646728515625" y="45" x="36.9595947265625" class="er attributeBoxEven"/><text style="dominant-baseline: middle; font-size: 10.2px;" transform="translate(41.9595947265625,55.5)" y="0" x="0" id="text-entity-brands-643bd60d-8f2d-5b25-b505-fe833ec39ed2-attr-2-name" class="er entityLabel">name</text><rect height="21" width="25.508758544921875" y="45" x="74.49124145507812" class="er attributeBoxEven"/><text style="dominant-baseline: middle; font-size: 10.2px;" transform="translate(79.49124145507812,55.5)" y="0" x="0" id="text-entity-brands-643bd60d-8f2d-5b25-b505-fe833ec39ed2-attr-2-key" class="er entityLabel"/></g><g transform="translate(220,730 )" id="entity-producttypes-f0ebd475-8a39-5fc3-98cd-a08f89644420"><rect height="108" width="122.85330200195312" y="0" x="0" class="er entityBox"/><text style="dominant-baseline: middle; text-anchor: middle; font-size: 12px;" transform="translate(61.42665100097656,12)" y="0" x="0" id="text-entity-producttypes-f0ebd475-8a39-5fc3-98cd-a08f89644420" class="er entityLabel">product_types</text><rect height="21" width="35.245819091796875" y="24" x="0" class="er attributeBoxOdd"/><text style="dominant-baseline: middle; font-size: 10.2px;" transform="translate(5,34.5)" y="0" x="0" id="text-entity-producttypes-f0ebd475-8a39-5fc3-98cd-a08f89644420-attr-1-type" class="er entityLabel">int</text><rect height="21" width="63.8125" y="24" x="35.245819091796875" class="er attributeBoxOdd"/><text style="dominant-baseline: middle; font-size: 10.2px;" transform="translate(40.245819091796875,34.5)" y="0" x="0" id="text-entity-producttypes-f0ebd475-8a39-5fc3-98cd-a08f89644420-attr-1-name" class="er entityLabel">id</text><rect height="21" width="23.79498291015625" y="24" x="99.05831909179688" class="er attributeBoxOdd"/><text style="dominant-baseline: middle; font-size: 10.2px;" transform="translate(104.05831909179688,34.5)" y="0" x="0" id="text-entity-producttypes-f0ebd475-8a39-5fc3-98cd-a08f89644420-attr-1-key" class="er entityLabel">PK</text><rect height="21" width="35.245819091796875" y="45" x="0" class="er attributeBoxEven"/><text style="dominant-baseline: middle; font-size: 10.2px;" transform="translate(5,55.5)" y="0" x="0" id="text-entity-producttypes-f0ebd475-8a39-5fc3-98cd-a08f89644420-attr-2-type" class="er entityLabel">string</text><rect height="21" width="63.8125" y="45" x="35.245819091796875" class="er attributeBoxEven"/><text style="dominant-baseline: middle; font-size: 10.2px;" transform="translate(40.245819091796875,55.5)" y="0" x="0" id="text-entity-producttypes-f0ebd475-8a39-5fc3-98cd-a08f89644420-attr-2-name" class="er entityLabel">name</text><rect height="21" width="23.79498291015625" y="45" x="99.05831909179688" class="er attributeBoxEven"/><text style="dominant-baseline: middle; font-size: 10.2px;" transform="translate(104.05831909179688,55.5)" y="0" x="0" id="text-entity-producttypes-f0ebd475-8a39-5fc3-98cd-a08f89644420-attr-2-key" class="er entityLabel"/><rect height="21" width="35.245819091796875" y="66" x="0" class="er attributeBoxOdd"/><text style="dominant-baseline: middle; font-size: 10.2px;" transform="translate(5,76.5)" y="0" x="0" id="text-entity-producttypes-f0ebd475-8a39-5fc3-98cd-a08f89644420-attr-3-type" class="er entityLabel">int</text><rect height="21" width="63.8125" y="66" x="35.245819091796875" class="er attributeBoxOdd"/><text style="dominant-baseline: middle; font-size: 10.2px;" transform="translate(40.245819091796875,76.5)" y="0" x="0" id="text-entity-producttypes-f0ebd475-8a39-5fc3-98cd-a08f89644420-attr-3-name" class="er entityLabel">order_index</text><rect height="21" width="23.79498291015625" y="66" x="99.05831909179688" class="er attributeBoxOdd"/><text style="dominant-baseline: middle; font-size: 10.2px;" transform="translate(104.05831909179688,76.5)" y="0" x="0" id="text-entity-producttypes-f0ebd475-8a39-5fc3-98cd-a08f89644420-attr-3-key" class="er entityLabel"/><rect height="21" width="35.245819091796875" y="87" x="0" class="er attributeBoxEven"/><text style="dominant-baseline: middle; font-size: 10.2px;" transform="translate(5,97.5)" y="0" x="0" id="text-entity-producttypes-f0ebd475-8a39-5fc3-98cd-a08f89644420-attr-4-type" class="er entityLabel">int</text><rect height="21" width="63.8125" y="87" x="35.245819091796875" class="er attributeBoxEven"/><text style="dominant-baseline: middle; font-size: 10.2px;" transform="translate(40.245819091796875,97.5)" y="0" x="0" id="text-entity-producttypes-f0ebd475-8a39-5fc3-98cd-a08f89644420-attr-4-name" class="er entityLabel">parent_id</text><rect height="21" width="23.79498291015625" y="87" x="99.05831909179688" class="er attributeBoxEven"/><text style="dominant-baseline: middle; font-size: 10.2px;" transform="translate(104.05831909179688,97.5)" y="0" x="0" id="text-entity-producttypes-f0ebd475-8a39-5fc3-98cd-a08f89644420-attr-4-key" class="er entityLabel"/></g><g transform="translate(203.40994262695312,333 )" id="entity-posts-e718dd5c-88db-5d98-b0b2-74f0389868b7"><rect height="297" width="156.03341674804688" y="0" x="0" class="er entityBox"/><text style="dominant-baseline: middle; text-anchor: middle; font-size: 12px;" transform="translate(78.01670837402344,12)" y="0" x="0" id="text-entity-posts-e718dd5c-88db-5d98-b0b2-74f0389868b7" class="er entityLabel">posts</text><rect height="21" width="49.4078369140625" y="24" x="0" class="er attributeBoxOdd"/><text style="dominant-baseline: middle; font-size: 10.2px;" transform="translate(5,34.5)" y="0" x="0" id="text-entity-posts-e718dd5c-88db-5d98-b0b2-74f0389868b7-attr-1-type" class="er entityLabel">int</text><rect height="21" width="82.83059692382812" y="24" x="49.4078369140625" class="er attributeBoxOdd"/><text style="dominant-baseline: middle; font-size: 10.2px;" transform="translate(54.4078369140625,34.5)" y="0" x="0" id="text-entity-posts-e718dd5c-88db-5d98-b0b2-74f0389868b7-attr-1-name" class="er entityLabel">id</text><rect height="21" width="23.79498291015625" y="24" x="132.23843383789062" class="er attributeBoxOdd"/><text style="dominant-baseline: middle; font-size: 10.2px;" transform="translate(137.23843383789062,34.5)" y="0" x="0" id="text-entity-posts-e718dd5c-88db-5d98-b0b2-74f0389868b7-attr-1-key" class="er entityLabel">PK</text><rect height="21" width="49.4078369140625" y="45" x="0" class="er attributeBoxEven"/><text style="dominant-baseline: middle; font-size: 10.2px;" transform="translate(5,55.5)" y="0" x="0" id="text-entity-posts-e718dd5c-88db-5d98-b0b2-74f0389868b7-attr-2-type" class="er entityLabel">int</text><rect height="21" width="82.83059692382812" y="45" x="49.4078369140625" class="er attributeBoxEven"/><text style="dominant-baseline: middle; font-size: 10.2px;" transform="translate(54.4078369140625,55.5)" y="0" x="0" id="text-entity-posts-e718dd5c-88db-5d98-b0b2-74f0389868b7-attr-2-name" class="er entityLabel">owner_id</text><rect height="21" width="23.79498291015625" y="45" x="132.23843383789062" class="er attributeBoxEven"/><text style="dominant-baseline: middle; font-size: 10.2px;" transform="translate(137.23843383789062,55.5)" y="0" x="0" id="text-entity-posts-e718dd5c-88db-5d98-b0b2-74f0389868b7-attr-2-key" class="er entityLabel">FK</text><rect height="21" width="49.4078369140625" y="66" x="0" class="er attributeBoxOdd"/><text style="dominant-baseline: middle; font-size: 10.2px;" transform="translate(5,76.5)" y="0" x="0" id="text-entity-posts-e718dd5c-88db-5d98-b0b2-74f0389868b7-attr-3-type" class="er entityLabel">string</text><rect height="21" width="82.83059692382812" y="66" x="49.4078369140625" class="er attributeBoxOdd"/><text style="dominant-baseline: middle; font-size: 10.2px;" transform="translate(54.4078369140625,76.5)" y="0" x="0" id="text-entity-posts-e718dd5c-88db-5d98-b0b2-74f0389868b7-attr-3-name" class="er entityLabel">name</text><rect height="21" width="23.79498291015625" y="66" x="132.23843383789062" class="er attributeBoxOdd"/><text style="dominant-baseline: middle; font-size: 10.2px;" transform="translate(137.23843383789062,76.5)" y="0" x="0" id="text-entity-posts-e718dd5c-88db-5d98-b0b2-74f0389868b7-attr-3-key" class="er entityLabel"/><rect height="21" width="49.4078369140625" y="87" x="0" class="er attributeBoxEven"/><text style="dominant-baseline: middle; font-size: 10.2px;" transform="translate(5,97.5)" y="0" x="0" id="text-entity-posts-e718dd5c-88db-5d98-b0b2-74f0389868b7-attr-4-type" class="er entityLabel">string</text><rect height="21" width="82.83059692382812" y="87" x="49.4078369140625" class="er attributeBoxEven"/><text style="dominant-baseline: middle; font-size: 10.2px;" transform="translate(54.4078369140625,97.5)" y="0" x="0" id="text-entity-posts-e718dd5c-88db-5d98-b0b2-74f0389868b7-attr-4-name" class="er entityLabel">description</text><rect height="21" width="23.79498291015625" y="87" x="132.23843383789062" class="er attributeBoxEven"/><text style="dominant-baseline: middle; font-size: 10.2px;" transform="translate(137.23843383789062,97.5)" y="0" x="0" id="text-entity-posts-e718dd5c-88db-5d98-b0b2-74f0389868b7-attr-4-key" class="er entityLabel"/><rect height="21" width="49.4078369140625" y="108" x="0" class="er attributeBoxOdd"/><text style="dominant-baseline: middle; font-size: 10.2px;" transform="translate(5,118.5)" y="0" x="0" id="text-entity-posts-e718dd5c-88db-5d98-b0b2-74f0389868b7-attr-5-type" class="er entityLabel">double</text><rect height="21" width="82.83059692382812" y="108" x="49.4078369140625" class="er attributeBoxOdd"/><text style="dominant-baseline: middle; font-size: 10.2px;" transform="translate(54.4078369140625,118.5)" y="0" x="0" id="text-entity-posts-e718dd5c-88db-5d98-b0b2-74f0389868b7-attr-5-name" class="er entityLabel">price</text><rect height="21" width="23.79498291015625" y="108" x="132.23843383789062" class="er attributeBoxOdd"/><text style="dominant-baseline: middle; font-size: 10.2px;" transform="translate(137.23843383789062,118.5)" y="0" x="0" id="text-entity-posts-e718dd5c-88db-5d98-b0b2-74f0389868b7-attr-5-key" class="er entityLabel"/><rect height="21" width="49.4078369140625" y="129" x="0" class="er attributeBoxEven"/><text style="dominant-baseline: middle; font-size: 10.2px;" transform="translate(5,139.5)" y="0" x="0" id="text-entity-posts-e718dd5c-88db-5d98-b0b2-74f0389868b7-attr-6-type" class="er entityLabel">string</text><rect height="21" width="82.83059692382812" y="129" x="49.4078369140625" class="er attributeBoxEven"/><text style="dominant-baseline: middle; font-size: 10.2px;" transform="translate(54.4078369140625,139.5)" y="0" x="0" id="text-entity-posts-e718dd5c-88db-5d98-b0b2-74f0389868b7-attr-6-name" class="er entityLabel">item_condition</text><rect height="21" width="23.79498291015625" y="129" x="132.23843383789062" class="er attributeBoxEven"/><text style="dominant-baseline: middle; font-size: 10.2px;" transform="translate(137.23843383789062,139.5)" y="0" x="0" id="text-entity-posts-e718dd5c-88db-5d98-b0b2-74f0389868b7-attr-6-key" class="er entityLabel"/><rect height="21" width="49.4078369140625" y="150" x="0" class="er attributeBoxOdd"/><text style="dominant-baseline: middle; font-size: 10.2px;" transform="translate(5,160.5)" y="0" x="0" id="text-entity-posts-e718dd5c-88db-5d98-b0b2-74f0389868b7-attr-7-type" class="er entityLabel">string</text><rect height="21" width="82.83059692382812" y="150" x="49.4078369140625" class="er attributeBoxOdd"/><text style="dominant-baseline: middle; font-size: 10.2px;" transform="translate(54.4078369140625,160.5)" y="0" x="0" id="text-entity-posts-e718dd5c-88db-5d98-b0b2-74f0389868b7-attr-7-name" class="er entityLabel">size</text><rect height="21" width="23.79498291015625" y="150" x="132.23843383789062" class="er attributeBoxOdd"/><text style="dominant-baseline: middle; font-size: 10.2px;" transform="translate(137.23843383789062,160.5)" y="0" x="0" id="text-entity-posts-e718dd5c-88db-5d98-b0b2-74f0389868b7-attr-7-key" class="er entityLabel"/><rect height="21" width="49.4078369140625" y="171" x="0" class="er attributeBoxEven"/><text style="dominant-baseline: middle; font-size: 10.2px;" transform="translate(5,181.5)" y="0" x="0" id="text-entity-posts-e718dd5c-88db-5d98-b0b2-74f0389868b7-attr-8-type" class="er entityLabel">string</text><rect height="21" width="82.83059692382812" y="171" x="49.4078369140625" class="er attributeBoxEven"/><text style="dominant-baseline: middle; font-size: 10.2px;" transform="translate(54.4078369140625,181.5)" y="0" x="0" id="text-entity-posts-e718dd5c-88db-5d98-b0b2-74f0389868b7-attr-8-name" class="er entityLabel">location</text><rect height="21" width="23.79498291015625" y="171" x="132.23843383789062" class="er attributeBoxEven"/><text style="dominant-baseline: middle; font-size: 10.2px;" transform="translate(137.23843383789062,181.5)" y="0" x="0" id="text-entity-posts-e718dd5c-88db-5d98-b0b2-74f0389868b7-attr-8-key" class="er entityLabel"/><rect height="21" width="49.4078369140625" y="192" x="0" class="er attributeBoxOdd"/><text style="dominant-baseline: middle; font-size: 10.2px;" transform="translate(5,202.5)" y="0" x="0" id="text-entity-posts-e718dd5c-88db-5d98-b0b2-74f0389868b7-attr-9-type" class="er entityLabel">string</text><rect height="21" width="82.83059692382812" y="192" x="49.4078369140625" class="er attributeBoxOdd"/><text style="dominant-baseline: middle; font-size: 10.2px;" transform="translate(54.4078369140625,202.5)" y="0" x="0" id="text-entity-posts-e718dd5c-88db-5d98-b0b2-74f0389868b7-attr-9-name" class="er entityLabel">status</text><rect height="21" width="23.79498291015625" y="192" x="132.23843383789062" class="er attributeBoxOdd"/><text style="dominant-baseline: middle; font-size: 10.2px;" transform="translate(137.23843383789062,202.5)" y="0" x="0" id="text-entity-posts-e718dd5c-88db-5d98-b0b2-74f0389868b7-attr-9-key" class="er entityLabel"/><rect height="21" width="49.4078369140625" y="213" x="0" class="er attributeBoxEven"/><text style="dominant-baseline: middle; font-size: 10.2px;" transform="translate(5,223.5)" y="0" x="0" id="text-entity-posts-e718dd5c-88db-5d98-b0b2-74f0389868b7-attr-10-type" class="er entityLabel">string</text><rect height="21" width="82.83059692382812" y="213" x="49.4078369140625" class="er attributeBoxEven"/><text style="dominant-baseline: middle; font-size: 10.2px;" transform="translate(54.4078369140625,223.5)" y="0" x="0" id="text-entity-posts-e718dd5c-88db-5d98-b0b2-74f0389868b7-attr-10-name" class="er entityLabel">image_id</text><rect height="21" width="23.79498291015625" y="213" x="132.23843383789062" class="er attributeBoxEven"/><text style="dominant-baseline: middle; font-size: 10.2px;" transform="translate(137.23843383789062,223.5)" y="0" x="0" id="text-entity-posts-e718dd5c-88db-5d98-b0b2-74f0389868b7-attr-10-key" class="er entityLabel"/><rect height="21" width="49.4078369140625" y="234" x="0" class="er attributeBoxOdd"/><text style="dominant-baseline: middle; font-size: 10.2px;" transform="translate(5,244.5)" y="0" x="0" id="text-entity-posts-e718dd5c-88db-5d98-b0b2-74f0389868b7-attr-11-type" class="er entityLabel">int</text><rect height="21" width="82.83059692382812" y="234" x="49.4078369140625" class="er attributeBoxOdd"/><text style="dominant-baseline: middle; font-size: 10.2px;" transform="translate(54.4078369140625,244.5)" y="0" x="0" id="text-entity-posts-e718dd5c-88db-5d98-b0b2-74f0389868b7-attr-11-name" class="er entityLabel">brands_id</text><rect height="21" width="23.79498291015625" y="234" x="132.23843383789062" class="er attributeBoxOdd"/><text style="dominant-baseline: middle; font-size: 10.2px;" transform="translate(137.23843383789062,244.5)" y="0" x="0" id="text-entity-posts-e718dd5c-88db-5d98-b0b2-74f0389868b7-attr-11-key" class="er entityLabel">FK</text><rect height="21" width="49.4078369140625" y="255" x="0" class="er attributeBoxEven"/><text style="dominant-baseline: middle; font-size: 10.2px;" transform="translate(5,265.5)" y="0" x="0" id="text-entity-posts-e718dd5c-88db-5d98-b0b2-74f0389868b7-attr-12-type" class="er entityLabel">int</text><rect height="21" width="82.83059692382812" y="255" x="49.4078369140625" class="er attributeBoxEven"/><text style="dominant-baseline: middle; font-size: 10.2px;" transform="translate(54.4078369140625,265.5)" y="0" x="0" id="text-entity-posts-e718dd5c-88db-5d98-b0b2-74f0389868b7-attr-12-name" class="er entityLabel">product_type_id</text><rect height="21" width="23.79498291015625" y="255" x="132.23843383789062" class="er attributeBoxEven"/><text style="dominant-baseline: middle; font-size: 10.2px;" transform="translate(137.23843383789062,265.5)" y="0" x="0" id="text-entity-posts-e718dd5c-88db-5d98-b0b2-74f0389868b7-attr-12-key" class="er entityLabel">FK</text><rect height="21" width="49.4078369140625" y="276" x="0" class="er attributeBoxOdd"/><text style="dominant-baseline: middle; font-size: 10.2px;" transform="translate(5,286.5)" y="0" x="0" id="text-entity-posts-e718dd5c-88db-5d98-b0b2-74f0389868b7-attr-13-type" class="er entityLabel">datetime</text><rect height="21" width="82.83059692382812" y="276" x="49.4078369140625" class="er attributeBoxOdd"/><text style="dominant-baseline: middle; font-size: 10.2px;" transform="translate(54.4078369140625,286.5)" y="0" x="0" id="text-entity-posts-e718dd5c-88db-5d98-b0b2-74f0389868b7-attr-13-name" class="er entityLabel">date_posted_at</text><rect height="21" width="23.79498291015625" y="276" x="132.23843383789062" class="er attributeBoxOdd"/><text style="dominant-baseline: middle; font-size: 10.2px;" transform="translate(137.23843383789062,286.5)" y="0" x="0" id="text-entity-posts-e718dd5c-88db-5d98-b0b2-74f0389868b7-attr-13-key" class="er entityLabel"/></g><g transform="translate(442.8533020019531,751 )" id="entity-postassets-ba312a6d-e1d7-5a2e-aa40-941a4912d9d6"><rect height="66" width="106.74740600585938" y="0" x="0" class="er entityBox"/><text style="dominant-baseline: middle; text-anchor: middle; font-size: 12px;" transform="translate(53.37370300292969,12)" y="0" x="0" id="text-entity-postassets-ba312a6d-e1d7-5a2e-aa40-941a4912d9d6" class="er entityLabel">post_assets</text><rect height="21" width="35.245819091796875" y="24" x="0" class="er attributeBoxOdd"/><text style="dominant-baseline: middle; font-size: 10.2px;" transform="translate(5,34.5)" y="0" x="0" id="text-entity-postassets-ba312a6d-e1d7-5a2e-aa40-941a4912d9d6-attr-1-type" class="er entityLabel">int</text><rect height="21" width="48.278656005859375" y="24" x="35.245819091796875" class="er attributeBoxOdd"/><text style="dominant-baseline: middle; font-size: 10.2px;" transform="translate(40.245819091796875,34.5)" y="0" x="0" id="text-entity-postassets-ba312a6d-e1d7-5a2e-aa40-941a4912d9d6-attr-1-name" class="er entityLabel">post_id</text><rect height="21" width="23.222930908203125" y="24" x="83.52447509765625" class="er attributeBoxOdd"/><text style="dominant-baseline: middle; font-size: 10.2px;" transform="translate(88.52447509765625,34.5)" y="0" x="0" id="text-entity-postassets-ba312a6d-e1d7-5a2e-aa40-941a4912d9d6-attr-1-key" class="er entityLabel">FK</text><rect height="21" width="35.245819091796875" y="45" x="0" class="er attributeBoxEven"/><text style="dominant-baseline: middle; font-size: 10.2px;" transform="translate(5,55.5)" y="0" x="0" id="text-entity-postassets-ba312a6d-e1d7-5a2e-aa40-941a4912d9d6-attr-2-type" class="er entityLabel">string</text><rect height="21" width="48.278656005859375" y="45" x="35.245819091796875" class="er attributeBoxEven"/><text style="dominant-baseline: middle; font-size: 10.2px;" transform="translate(40.245819091796875,55.5)" y="0" x="0" id="text-entity-postassets-ba312a6d-e1d7-5a2e-aa40-941a4912d9d6-attr-2-name" class="er entityLabel">asset_id</text><rect height="21" width="23.222930908203125" y="45" x="83.52447509765625" class="er attributeBoxEven"/><text style="dominant-baseline: middle; font-size: 10.2px;" transform="translate(88.52447509765625,55.5)" y="0" x="0" id="text-entity-postassets-ba312a6d-e1d7-5a2e-aa40-941a4912d9d6-attr-2-key" class="er entityLabel"/></g><rect height="14" width="45.359375" y="275.687255859375" x="213.5195770263672" class="er relationshipLabelBox"/><text style="text-anchor: middle; dominant-baseline: middle; font-size: 12px;" y="282.687255859375" x="236.1992645263672" id="rel1" class="er relationshipLabel">favorites</text><rect height="14" width="19.359375" y="275.6872253417969" x="316.9740295410156" class="er relationshipLabelBox"/><text style="text-anchor: middle; dominant-baseline: middle; font-size: 12px;" y="282.6872253417969" x="326.6537170410156" id="rel2" class="er relationshipLabel">has</text><rect height="14" width="8.671875" y="634.1129150390625" x="111.62428283691406" class="er relationshipLabelBox"/><text style="text-anchor: middle; dominant-baseline: middle; font-size: 12px;" y="641.1129150390625" x="115.96022033691406" id="rel3" class="er relationshipLabel">is</text><rect height="14" width="8.671875" y="673" x="277.091064453125" class="er relationshipLabelBox"/><text style="text-anchor: middle; dominant-baseline: middle; font-size: 12px;" y="680" x="281.427001953125" id="rel4" class="er relationshipLabel">is</text><rect height="14" width="19.359375" y="633.2824096679688" x="439.03240966796875" class="er relationshipLabelBox"/><text style="text-anchor: middle; dominant-baseline: middle; font-size: 12px;" y="640.2824096679688" x="448.71209716796875" id="rel5" class="er relationshipLabel">has</text><text class="entityTitleText" y="-25" x="284.80035400390625" text-anchor="middle">ER Diagram for Gilbert</text></svg>